<?xml version="1.0" encoding="iso-8859-1"?>
<!-- Generator: Adobe Illustrator 19.0.0, SVG Export Plug-In . SVG Version: 6.00 Build 0)  -->
<svg version="1.1" id="Layer_1" xmlns="http://www.w3.org/2000/svg" xmlns:xlink="http://www.w3.org/1999/xlink" x="0px" y="0px"
	 viewBox="0 0 512 512" style="enable-background:new 0 0 512 512;" xml:space="preserve">
<circle style="fill:#386895;" cx="256" cy="256" r="256"/>
<path style="fill:#273B7A;" d="M266.845,511.755c132.775-5.535,239.409-112.19,244.912-244.974L335.822,90.845l-65.155,225.792
	l6.173,6.173l-101.321,97.618L266.845,511.755z"/>
<path style="fill:#FFFFFF;" d="M189.485,426.667h133.029c10.393,0,18.82-8.425,18.82-18.82V104.153
	c0-10.393-8.425-18.82-18.82-18.82H189.485c-10.393,0-18.818,8.425-18.818,18.82v303.695
	C170.667,418.242,179.091,426.667,189.485,426.667z"/>
<g>
	<path style="fill:#D0D1D3;" d="M322.513,85.333H256v341.333h66.513c10.393,0,18.82-8.425,18.82-18.82V104.153
		C341.333,93.758,332.907,85.333,322.513,85.333z"/>
	<path style="fill:#D0D1D3;" d="M341.333,104.153c0-10.393-8.426-18.82-18.82-18.82H189.485c-10.393,0-18.818,8.425-18.818,18.82
		v107.025h170.667V104.153z"/>
</g>
<path style="fill:#A6A8AA;" d="M341.333,104.153c0-10.393-8.426-18.82-18.82-18.82H256v125.845h85.333V104.153z"/>
<g>
	<path style="fill:#386895;" d="M221.953,199.973h-28.444c-3.332,0-6.034-2.701-6.034-6.034s2.701-6.034,6.034-6.034h28.444
		c3.332,0,6.034,2.701,6.034,6.034S225.285,199.973,221.953,199.973z"/>
	<path style="fill:#386895;" d="M221.953,233.589h-28.444c-3.332,0-6.034-2.701-6.034-6.034c0-3.332,2.701-6.034,6.034-6.034h28.444
		c3.332,0,6.034,2.701,6.034,6.034C227.987,230.888,225.285,233.589,221.953,233.589z"/>
</g>
<g>
</g>
<g>
</g>
<g>
</g>
<g>
</g>
<g>
</g>
<g>
</g>
<g>
</g>
<g>
</g>
<g>
</g>
<g>
</g>
<g>
</g>
<g>
</g>
<g>
</g>
<g>
</g>
<g>
</g>
</svg>
