<?xml version="1.0" encoding="iso-8859-1"?>
<!-- Generator: Adobe Illustrator 19.0.0, SVG Export Plug-In . SVG Version: 6.00 Build 0)  -->
<svg version="1.1" id="Layer_1" xmlns="http://www.w3.org/2000/svg" xmlns:xlink="http://www.w3.org/1999/xlink" x="0px" y="0px"
	 viewBox="0 0 512 512" style="enable-background:new 0 0 512 512;" xml:space="preserve">
<circle style="fill:#FFAD9E;" cx="256" cy="256" r="256"/>
<path style="fill:#FF6262;" d="M512,256c0-12.645-0.933-25.071-2.703-37.223L404.28,113.761L258.136,275.756L100.243,381.705
	L229.138,510.6c8.83,0.921,17.789,1.4,26.862,1.4C397.384,512,512,397.384,512,256z"/>
<path style="fill:#D35933;" d="M404.28,113.761L404.28,113.761c9.966,9.966,9.966,26.124,0,36.09l-90.226,90.226l-36.09-36.09
	l90.226-90.226C378.156,103.795,394.314,103.795,404.28,113.761z"/>
<path style="fill:#B54324;" d="M404.28,113.761L404.28,113.761c-0.147-0.147-0.307-0.271-0.457-0.412L295.574,221.598l18.479,18.48
	l90.226-90.226C414.246,139.885,414.246,123.726,404.28,113.761z"/>
<path style="fill:#FFFFFF;" d="M280.698,201.252l57.963,57.963L216.173,381.704c-32.013,32.013-83.915,32.013-115.927,0
	L280.698,201.252z"/>
<path style="fill:#D0D1D3;" d="M120.589,396.583c30.856,15.944,69.713,10.993,95.584-14.879l122.489-122.489l-40.351-40.353
	L120.589,396.583z"/>
<g>
	<circle style="fill:#E09112;" cx="318.354" cy="197.37" r="6.896"/>
	<circle style="fill:#E09112;" cx="361.02" cy="154.703" r="6.896"/>
</g>
<g>
</g>
<g>
</g>
<g>
</g>
<g>
</g>
<g>
</g>
<g>
</g>
<g>
</g>
<g>
</g>
<g>
</g>
<g>
</g>
<g>
</g>
<g>
</g>
<g>
</g>
<g>
</g>
<g>
</g>
</svg>
