<?xml version="1.0" encoding="iso-8859-1"?>
<!-- Generator: Adobe Illustrator 19.0.0, SVG Export Plug-In . SVG Version: 6.00 Build 0)  -->
<svg version="1.1" id="Layer_1" xmlns="http://www.w3.org/2000/svg" xmlns:xlink="http://www.w3.org/1999/xlink" x="0px" y="0px"
	 viewBox="0 0 512 512" style="enable-background:new 0 0 512 512;" xml:space="preserve">
<circle style="fill:#273B7A;" cx="256" cy="256" r="256"/>
<path style="fill:#121149;" d="M272.93,511.429c119.636-7.814,216.838-97.797,235.727-214.071L359.431,148.132l-169.658,36.471
	l-41.374,41.374l22.506,22.506l-19.358,29.205l33.197,34.135l-8.875,31.17l-11.716,1.8l-4.105,53.76L272.93,511.429z"/>
<g>
	<path style="fill:#A6A8AA;" d="M194.02,335.3h-4.391V256c0-3.332-2.701-6.034-6.034-6.034c-3.332,0-6.034,2.701-6.034,6.034v79.3
		h-4.391c-9.937,0-18.02,8.083-18.02,18.02v32.916c0,9.937,8.083,18.02,18.02,18.02h20.849c9.937,0,18.02-8.083,18.02-18.02V353.32
		C212.04,343.383,203.955,335.3,194.02,335.3z M167.219,386.236V353.32c0-3.282,2.67-5.953,5.953-5.953h4.391v44.822h-4.391
		C169.889,392.189,167.219,389.518,167.219,386.236z M199.973,386.236c0,3.282-2.67,5.953-5.953,5.953h-4.391v-44.822h4.391
		c3.282,0,5.953,2.67,5.953,5.953V386.236z"/>
	<path style="fill:#A6A8AA;" d="M260.391,335.3H256V256c0-3.332-2.701-6.034-6.034-6.034s-6.034,2.701-6.034,6.034v79.3h-4.391
		c-9.937,0-18.02,8.083-18.02,18.02v32.916c0,9.937,8.083,18.02,18.02,18.02h20.849c9.937,0,18.02-8.083,18.02-18.02V353.32
		C278.411,343.383,270.326,335.3,260.391,335.3z M233.589,386.236V353.32c0-3.282,2.67-5.953,5.953-5.953h4.391v44.822h-4.391
		C236.26,392.189,233.589,389.518,233.589,386.236z M266.343,386.236c0,3.282-2.67,5.953-5.953,5.953H256v-44.822h4.391
		c3.282,0,5.953,2.67,5.953,5.953V386.236z"/>
</g>
<path style="fill:#FF6262;" d="M342.481,142.222h-97.113c-56.966,0-103.146,46.18-103.146,103.146v11.779
	c0,15.076,12.221,27.295,27.295,27.295h172.965c15.076,0,27.295-12.221,27.295-27.295v-87.631
	C369.778,154.443,357.557,142.222,342.481,142.222z M341.333,189.487c0,5.317-4.31,9.625-9.625,9.625h-66.082
	c-5.317,0-9.625-4.31-9.625-9.625v-9.194c0-5.317,4.31-9.625,9.625-9.625h66.082c5.317,0,9.625,4.31,9.625,9.625V189.487z"/>
<g>
	<path style="fill:#FF314F;" d="M342.481,142.222H263.47v28.696c0.693-0.159,1.412-0.252,2.155-0.252h66.082
		c5.317,0,9.625,4.31,9.625,9.625v9.194c0,5.317-4.31,9.625-9.625,9.625h-66.082c-0.741,0-1.46-0.091-2.155-0.252v85.587h79.012
		c15.076,0,27.295-12.221,27.295-27.295v-87.633C369.778,154.443,357.557,142.222,342.481,142.222z"/>
	<circle style="fill:#FF314F;" cx="177.562" cy="249.104" r="6.896"/>
	<circle style="fill:#FF314F;" cx="206.007" cy="249.104" r="6.896"/>
</g>
<g>
</g>
<g>
</g>
<g>
</g>
<g>
</g>
<g>
</g>
<g>
</g>
<g>
</g>
<g>
</g>
<g>
</g>
<g>
</g>
<g>
</g>
<g>
</g>
<g>
</g>
<g>
</g>
<g>
</g>
</svg>
