<?xml version="1.0" encoding="iso-8859-1"?>
<!-- Generator: Adobe Illustrator 19.0.0, SVG Export Plug-In . SVG Version: 6.00 Build 0)  -->
<svg version="1.1" id="Layer_1" xmlns="http://www.w3.org/2000/svg" xmlns:xlink="http://www.w3.org/1999/xlink" x="0px" y="0px"
	 viewBox="0 0 501.999 501.999" style="enable-background:new 0 0 501.999 501.999;" xml:space="preserve">
<g>
	<g>
		<g>
			<path d="M500.358,150.802c-1.849-2.815-4.99-4.51-8.358-4.51h-23.732v-55.06c0-5.523-4.478-10-10-10h-86.269
				c-5.522,0-10,4.477-10,10v31.125L320.07,80.428c-3.906-3.904-10.236-3.904-14.143,0l-8.755,8.755
				c-16.3-31.442-48.842-51.684-85.173-51.684c-33.2,0-63.832,17.099-81.34,45h-17.66c-5.522,0-10,4.477-10,10v53.793H85.432
				l-8.358-50.771c-0.79-4.798-4.918-8.333-9.78-8.375L10.087,86.65c-0.03,0-0.06,0-0.089,0c-5.482,0-9.95,4.42-9.998,9.914
				c-0.048,5.522,4.391,10.038,9.913,10.086l48.794,0.423l8.37,50.844c0,0.001,0,0.001,0,0.002l32.804,199.256
				c-0.045,0.384-0.074,0.772-0.074,1.168v31.859c-15.492,4.797-26.777,19.256-26.777,36.303c0,20.951,17.045,37.995,37.995,37.995
				c18.36,0,33.719-13.091,37.236-30.429h189.653c3.517,17.338,18.876,30.429,37.236,30.429c20.95,0,37.995-17.044,37.995-37.995
				c0-20.95-17.045-37.995-37.995-37.995c-16.596,0-30.732,10.7-35.895,25.561H146.92c-4.223-12.153-14.447-21.515-27.113-24.525
				v-23.637H405.58c3.987,0,7.593-2.368,9.177-6.027l86.419-199.616C502.514,157.174,502.206,153.618,500.358,150.802z
				 M375.151,408.509c9.923,0,17.995,8.072,17.995,17.995c0,9.923-8.072,17.995-17.995,17.995c-9.923,0-17.995-8.073-17.995-17.995
				S365.228,408.509,375.151,408.509z M381.999,101.232h66.268v45.06h-66.268V101.232z M300.81,113.831
				c0.001-0.001,0.001-0.002,0.002-0.003l12.187-12.187l44.65,44.651h-89.3L300.81,113.831z M211.999,57.499
				c30.94,0,58.414,18.541,70.14,46.718l-42.075,42.075h-16.065V92.499c0-5.523-4.478-10-10-10H155.64
				C169.874,66.773,190.242,57.499,211.999,57.499z M122.999,102.499h13.384h67.616v43.793h-81V102.499z M129.02,426.504
				c0,9.922-8.072,17.995-17.995,17.995c-9.923,0-17.995-8.073-17.995-17.995s8.072-17.995,17.995-17.995
				C120.948,408.509,129.02,416.582,129.02,426.504z M399.013,345.908H118.295l-5.124-31.121h264.414c5.522,0,10-4.477,10-10
				s-4.478-10-10-10H109.879l-4.723-28.687H302.12c5.522,0,10-4.477,10-10s-4.478-10-10-10H101.864l-4.723-28.687h264.621
				c5.522,0,10-4.477,10-10c0-5.523-4.478-10-10-10H93.849l-5.124-31.121h22.244c0.656,0.135,1.335,0.207,2.03,0.207h101h30h214.268
				c0.696,0,1.375-0.072,2.03-0.207h16.476L399.013,345.908z"/>
			<path d="M423.838,197.413H405.58c-5.522,0-10,4.477-10,10s4.478,10,10,10h18.258c5.522,0,10-4.477,10-10
				S429.361,197.413,423.838,197.413z"/>
			<path d="M370.283,246.1h-21.909c-5.522,0-10,4.477-10,10s4.478,10,10,10h21.909c5.522,0,10-4.477,10-10
				S375.805,246.1,370.283,246.1z"/>
		</g>
	</g>
</g>
<g>
</g>
<g>
</g>
<g>
</g>
<g>
</g>
<g>
</g>
<g>
</g>
<g>
</g>
<g>
</g>
<g>
</g>
<g>
</g>
<g>
</g>
<g>
</g>
<g>
</g>
<g>
</g>
<g>
</g>
</svg>
