<?xml version="1.0" encoding="iso-8859-1"?>
<!-- Generator: Adobe Illustrator 19.0.0, SVG Export Plug-In . SVG Version: 6.00 Build 0)  -->
<svg version="1.1" id="Layer_1" xmlns="http://www.w3.org/2000/svg" xmlns:xlink="http://www.w3.org/1999/xlink" x="0px" y="0px"
	 viewBox="0 0 502 502" style="enable-background:new 0 0 502 502;" xml:space="preserve">
<g>
	<g>
		<g>
			<path d="M251,0C148.371,0,64.877,83.494,64.877,186.122c0,72.374,42.06,138.19,107.465,168.72l67.75,141.477
				c1.663,3.472,5.17,5.681,9.019,5.681s7.357-2.209,9.019-5.681l66.715-139.312c32.294-13.963,59.833-36.664,79.82-65.845
				c21.234-31.002,32.458-67.324,32.458-105.039C437.123,83.494,353.629,0,251,0z M313.69,340.001c-2.301,0.938-4.17,2.7-5.243,4.94
				l-59.336,123.906L188.81,342.926c-1.03-2.149-2.793-3.86-4.972-4.825c-60.116-26.609-98.961-86.264-98.961-151.978
				C84.877,94.522,159.399,20,251,20s166.123,74.522,166.123,166.124C417.123,253.974,376.523,314.374,313.69,340.001z"/>
			<path d="M251,103.603c-45.502,0-82.521,37.019-82.521,82.521c0,45.502,37.019,82.521,82.521,82.521
				c45.503,0,82.521-37.019,82.521-82.521C333.521,140.622,296.503,103.603,251,103.603z M251,248.644
				c-34.474,0-62.521-28.047-62.521-62.521s28.046-62.521,62.521-62.521c34.475,0,62.521,28.047,62.521,62.521
				S285.474,248.644,251,248.644z"/>
			<path d="M167.269,84.583c-3.827-3.98-10.158-4.107-14.139-0.278c-27.96,26.881-43.358,63.042-43.358,101.818
				c0,16.148,2.705,31.99,8.041,47.085c1.451,4.106,5.308,6.67,9.428,6.67c1.106,0,2.231-0.186,3.333-0.574
				c5.207-1.841,7.936-7.555,6.095-12.762c-4.577-12.948-6.898-26.547-6.898-40.419c0-33.285,13.219-64.324,37.22-87.4
				C170.973,94.895,171.097,88.564,167.269,84.583z"/>
			<path d="M207.257,72.364c1.106,0,2.231-0.185,3.333-0.574c12.945-4.576,26.541-6.896,40.411-6.896c5.522,0,10-4.478,10-10
				c0-5.522-4.478-10-10-10c-16.146,0-31.985,2.704-47.076,8.038c-5.207,1.841-7.937,7.554-6.096,12.761
				C199.279,69.799,203.137,72.364,207.257,72.364z"/>
		</g>
	</g>
</g>
<g>
</g>
<g>
</g>
<g>
</g>
<g>
</g>
<g>
</g>
<g>
</g>
<g>
</g>
<g>
</g>
<g>
</g>
<g>
</g>
<g>
</g>
<g>
</g>
<g>
</g>
<g>
</g>
<g>
</g>
</svg>
