<?xml version="1.0" encoding="iso-8859-1"?>
<!-- Generator: Adobe Illustrator 19.0.0, SVG Export Plug-In . SVG Version: 6.00 Build 0)  -->
<svg version="1.1" id="Layer_1" xmlns="http://www.w3.org/2000/svg" xmlns:xlink="http://www.w3.org/1999/xlink" x="0px" y="0px"
	 viewBox="0 0 502 502" style="enable-background:new 0 0 502 502;" xml:space="preserve">
<g>
	<g>
		<g>
			<path d="M427.115,0H74.885c-5.523,0-10,4.477-10,10v482c0,5.523,4.477,10,10,10h352.23c5.523,0,10-4.477,10-10V10
				C437.115,4.477,432.637,0,427.115,0z M417.115,482H84.885V20h332.23V482z"/>
			<path d="M149.462,154.565c1.953,1.953,4.512,2.929,7.071,2.929s5.119-0.976,7.071-2.929l52.011-52.011
				c3.905-3.905,3.905-10.237,0-14.143c-3.905-3.905-10.237-3.905-14.143,0l-44.939,44.939l-20.507-20.507
				c-3.905-3.905-10.237-3.905-14.143,0c-3.905,3.905-3.905,10.237,0,14.143L149.462,154.565z"/>
			<path d="M201.473,219.726l-44.939,44.939l-20.507-20.507c-3.905-3.905-10.237-3.905-14.143,0c-3.905,3.905-3.905,10.237,0,14.143
				l27.579,27.579c1.953,1.953,4.512,2.929,7.071,2.929c2.559,0,5.119-0.976,7.071-2.929l52.011-52.011
				c3.905-3.905,3.905-10.237,0-14.143C211.71,215.82,205.378,215.82,201.473,219.726z"/>
			<path d="M201.473,347.435l-44.939,44.939l-20.507-20.507c-3.905-3.905-10.237-3.905-14.143,0c-3.905,3.905-3.905,10.237,0,14.143
				l27.579,27.579c1.953,1.953,4.512,2.929,7.071,2.929c2.559,0,5.119-0.976,7.071-2.929l52.011-52.011
				c3.905-3.905,3.905-10.237,0-14.143C211.71,343.53,205.378,343.53,201.473,347.435z"/>
			<path d="M257.694,153.889h115.351c5.522,0,10-4.477,10-10c0-5.523-4.478-10-10-10H257.694c-5.522,0-10,4.477-10,10
				C247.694,149.412,252.172,153.889,257.694,153.889z"/>
			<path d="M257.695,116.297h66.944c5.522,0,10-4.477,10-10s-4.478-10-10-10h-66.944c-5.522,0-10,4.477-10,10
				S252.173,116.297,257.695,116.297z"/>
			<path d="M360.171,116.297h13.389c5.522,0,10-4.477,10-10s-4.478-10-10-10h-13.389c-5.522,0-10,4.477-10,10
				S354.649,116.297,360.171,116.297z"/>
			<path d="M257.694,285.203h115.351c5.522,0,10-4.477,10-10s-4.478-10-10-10H257.694c-5.522,0-10,4.477-10,10
				S252.172,285.203,257.694,285.203z"/>
			<path d="M257.695,227.611c-5.522,0-10,4.477-10,10c0,5.523,4.478,10,10,10h66.944c5.522,0,10-4.477,10-10c0-5.523-4.478-10-10-10
				H257.695z"/>
			<path d="M373.56,227.611h-13.389c-5.522,0-10,4.477-10,10c0,5.523,4.478,10,10,10h13.389c5.522,0,10-4.477,10-10
				C383.56,232.088,379.082,227.611,373.56,227.611z"/>
			<path d="M257.694,412.397h115.351c5.522,0,10-4.477,10-10s-4.478-10-10-10H257.694c-5.522,0-10,4.477-10,10
				S252.172,412.397,257.694,412.397z"/>
			<path d="M257.695,354.806c-5.522,0-10,4.477-10,10s4.478,10,10,10h66.944c5.522,0,10-4.477,10-10s-4.478-10-10-10H257.695z"/>
			<path d="M373.56,354.806h-13.389c-5.522,0-10,4.477-10,10s4.478,10,10,10h13.389c5.522,0,10-4.477,10-10
				S379.082,354.806,373.56,354.806z"/>
		</g>
	</g>
</g>
<g>
</g>
<g>
</g>
<g>
</g>
<g>
</g>
<g>
</g>
<g>
</g>
<g>
</g>
<g>
</g>
<g>
</g>
<g>
</g>
<g>
</g>
<g>
</g>
<g>
</g>
<g>
</g>
<g>
</g>
</svg>
